#N canvas 504 155 495 370 12;
#X msg 170 51 devices;
#X floatatom 208 132 5 0 0 0 - - - 0;
#X msg 234 53 open 2;
#X msg 291 54 close 2;
#X obj 211 198 osc~;
#X obj 212 233 dac~;
#X obj 208 161 * 10;
#X obj 208 99 comport 3 9600;
#X connect 0 0 7 0;
#X connect 1 0 6 0;
#X connect 2 0 7 0;
#X connect 3 0 7 0;
#X connect 4 0 5 0;
#X connect 4 0 5 1;
#X connect 6 0 4 0;
#X connect 7 0 1 0;
